<?xml version="1.0" encoding="UTF-8"?>
<svg id="Layer_1" data-name="Layer 1" xmlns="http://www.w3.org/2000/svg" viewBox="0 0 32 32">
  <defs>
    <style>
      .cls-1 {
        fill: #0100b9;
      }

      .cls-2 {
        fill: #e72b00;
      }

      .cls-3 {
        fill: #1c2229;
      }

      .cls-4 {
        fill: #66d000;
      }

      .cls-5 {
        fill: #e7d400;
      }
    </style>
  </defs>
  <circle class="cls-3" cx="16" cy="16" r="16"/>
  <path class="cls-4" d="M20.3772,20.3772c-.5681.5681-1.2298,1.0142-1.9666,1.3259-.6517.2756-1.3379.4352-2.0446.476v8.0132c1.7879-.0445,3.5223-.4177,5.1612-1.1108,1.6902-.7149,3.2083-1.7385,4.5121-3.0422,1.3037-1.3037,2.3273-2.8218,3.0422-4.5121.6932-1.6388,1.0663-3.3733,1.1108-5.1612h-8.0132c-.0407.7067-.2003,1.3929-.476,2.0446-.3116.7368-.7577,1.3985-1.3259,1.9666Z"/>
  <path class="cls-1" d="M20.3772,11.6228c.5681.5681,1.0142,1.2298,1.3259,1.9666.2756.6517.4352,1.3379.476,2.0446h8.0132c-.0445-1.7879-.4177-3.5223-1.1108-5.1612-.7149-1.6902-1.7385-3.2083-3.0422-4.5121-1.3037-1.3037-2.8218-2.3273-4.5121-3.0422-1.6388-.6932-3.3733-1.0663-5.1612-1.1108v8.0132c.7067.0407,1.3929.2003,2.0446.476.7368.3116,1.3985.7577,1.9666,1.3259Z"/>
  <path class="cls-2" d="M11.6228,20.3772c.5681.5681,1.2298,1.0142,1.9666,1.3259.6517.2756,1.3379.4352,2.0446.476v8.0132c-1.7879-.0445-3.5223-.4177-5.1612-1.1108-1.6902-.7149-3.2083-1.7385-4.5121-3.0422-1.3037-1.3037-2.3273-2.8218-3.0422-4.5121-.6932-1.6388-1.0663-3.3733-1.1108-5.1612h8.0132c.0407.7067.2003,1.3929.476,2.0446.3116.7368.7577,1.3985,1.3259,1.9666Z"/>
  <path class="cls-5" d="M11.6228,11.6228c-.5681.5681-1.0142,1.2298-1.3259,1.9666-.2756.6517-.4352,1.3379-.476,2.0446H1.8077c.0445-1.7879.4177-3.5223,1.1108-5.1612.7149-1.6902,1.7385-3.2083,3.0422-4.5121,1.3037-1.3037,2.8218-2.3273,4.5121-3.0422,1.6388-.6932,3.3733-1.0663,5.1612-1.1108v8.0132c-.7067.0407-1.3929.2003-2.0446.476-.7368.3116-1.3985.7577-1.9666,1.3259Z"/>
</svg>